<svg width="26" height="30" viewBox="0 0 26 30" fill="none" xmlns="http://www.w3.org/2000/svg">
<g id="fluent:delete-32-regular">
<path id="Vector" d="M10.5 5.5V6H15.5V5.5C15.5 4.83696 15.2366 4.20107 14.7678 3.73223C14.2989 3.26339 13.663 3 13 3C12.337 3 11.7011 3.26339 11.2322 3.73223C10.7634 4.20107 10.5 4.83696 10.5 5.5ZM8.5 6V5.5C8.5 4.30653 8.97411 3.16193 9.81802 2.31802C10.6619 1.47411 11.8065 1 13 1C14.1935 1 15.3381 1.47411 16.182 2.31802C17.0259 3.16193 17.5 4.30653 17.5 5.5V6H25C25.2652 6 25.5196 6.10536 25.7071 6.29289C25.8946 6.48043 26 6.73478 26 7C26 7.26522 25.8946 7.51957 25.7071 7.70711C25.5196 7.89464 25.2652 8 25 8H23.492L21.6 24.568C21.4605 25.7882 20.8768 26.9143 19.9601 27.7317C19.0435 28.5491 17.8581 29.0006 16.63 29H9.37C8.14186 29.0006 6.95647 28.5491 6.03985 27.7317C5.12323 26.9143 4.53952 25.7882 4.4 24.568L2.508 8H1C0.734784 8 0.48043 7.89464 0.292893 7.70711C0.105357 7.51957 0 7.26522 0 7C0 6.73478 0.105357 6.48043 0.292893 6.29289C0.48043 6.10536 0.734784 6 1 6H8.5ZM6.388 24.34C6.47149 25.0719 6.82135 25.7475 7.37092 26.2381C7.92049 26.7286 8.63134 26.9998 9.368 27H16.631C17.3677 26.9998 18.0785 26.7286 18.6281 26.2381C19.1776 25.7475 19.5275 25.0719 19.611 24.34L21.48 8H4.521L6.388 24.34ZM10 11.5C10.2652 11.5 10.5196 11.6054 10.7071 11.7929C10.8946 11.9804 11 12.2348 11 12.5V22.5C11 22.7652 10.8946 23.0196 10.7071 23.2071C10.5196 23.3946 10.2652 23.5 10 23.5C9.73478 23.5 9.48043 23.3946 9.29289 23.2071C9.10536 23.0196 9 22.7652 9 22.5V12.5C9 12.2348 9.10536 11.9804 9.29289 11.7929C9.48043 11.6054 9.73478 11.5 10 11.5ZM17 12.5C17 12.2348 16.8946 11.9804 16.7071 11.7929C16.5196 11.6054 16.2652 11.5 16 11.5C15.7348 11.5 15.4804 11.6054 15.2929 11.7929C15.1054 11.9804 15 12.2348 15 12.5V22.5C15 22.7652 15.1054 23.0196 15.2929 23.2071C15.4804 23.3946 15.7348 23.5 16 23.5C16.2652 23.5 16.5196 23.3946 16.7071 23.2071C16.8946 23.0196 17 22.7652 17 22.5V12.5Z" fill="#5E5E75"/>
</g>
</svg>
