<svg width="32" height="32" viewBox="0 0 32 32" fill="none" xmlns="http://www.w3.org/2000/svg">
<g id="Icon - Like">
<path id="Vector" d="M26.4351 10.3758L26.4352 10.376C26.5325 10.8849 26.4498 11.4125 26.2009 11.8665C25.9519 12.3207 25.552 12.6729 25.0701 12.8598L25.0696 12.86L24.4291 13.1076L26.4351 10.3758ZM26.4351 10.3758L25.8875 7.51963L25.8875 7.5196C25.7835 6.97766 25.5283 6.47643 25.1512 6.07549C24.774 5.67449 24.2905 5.39057 23.7576 5.25822L23.7576 5.2582L13.4426 2.69782C12.1878 2.38633 10.8625 2.58925 9.75553 3.26153C8.64877 3.93367 7.85058 5.01992 7.53238 6.28261L7.53236 6.28271L5.61892 13.8817L5.6189 13.8818C5.51153 14.3085 5.50189 14.7544 5.5907 15.1854C5.6795 15.6165 5.86449 16.0218 6.13196 16.3702C6.39945 16.7186 6.74246 17.0011 7.13512 17.1956C7.52779 17.3901 7.95949 17.4914 8.39721 17.4914C8.39723 17.4914 8.39724 17.4914 8.39726 17.4914L12.2505 17.4914C12.2507 17.4914 12.2509 17.4914 12.2511 17.4914C12.3312 17.4915 12.4103 17.5109 12.4822 17.5482C12.5542 17.5856 12.6171 17.6401 12.6653 17.7077C12.7134 17.7753 12.7454 17.854 12.758 17.9374C12.7707 18.0208 12.7636 18.1059 12.7374 18.1858C11.8468 20.8993 11.382 22.9524 11.382 24.2494C11.382 25.4759 11.6063 26.4953 12.0274 27.2271C12.4548 27.9698 13.1098 28.4448 13.9198 28.4448C14.0521 28.4448 14.146 28.3931 14.1828 28.3706C14.2267 28.3437 14.2574 28.3156 14.2739 28.2994C14.3075 28.2666 14.3301 28.2354 14.3413 28.2194C14.3659 28.1842 14.3852 28.1486 14.3993 28.1206C14.4291 28.0614 14.4618 27.9839 14.4982 27.8853C14.5716 27.6861 14.6719 27.3673 14.8027 26.8644L14.8036 26.8606C14.871 26.5931 14.9416 26.3264 15.0155 26.0606L15.0155 26.0604C15.1529 25.5654 15.3904 24.725 15.7309 23.5415L15.7314 23.5398C15.7809 23.3656 15.8548 23.1992 15.9498 23.0496L15.9505 23.0485L19.8274 16.9064L19.8274 16.9063M26.4351 10.3758L19.8274 16.9063M14.3187 26.7386C14.3871 26.4671 14.4588 26.1964 14.5337 25.9267C14.6717 25.4297 14.9097 24.5876 15.2504 23.4033C15.3126 23.1842 15.4059 22.9733 15.5276 22.7816L14.3187 26.7386ZM14.3187 26.7386C14.0618 27.7271 13.936 27.9448 13.9198 27.9448C12.7461 27.9448 11.882 26.5976 11.882 24.2494C11.882 23.0391 12.3228 21.0524 13.2126 18.3414L14.3187 26.7386ZM19.8274 16.9063C20.921 15.1733 22.5341 13.8424 24.4286 13.1078L19.8274 16.9063ZM16.002 26.3484L16.0019 26.349C15.9477 26.5445 15.8966 26.7404 15.7953 27.1369C15.5459 28.0962 15.3227 28.684 15.0415 29.0371C14.7996 29.3409 14.4911 29.5 13.9185 29.5C12.838 29.5 11.9685 28.9942 11.3506 28.0953C10.7227 27.1818 10.3522 25.8519 10.3522 24.2494C10.3522 23.0796 10.6716 21.4123 11.3386 19.1888L11.5317 18.5451H10.8597H8.39586H8.39574C7.80326 18.5453 7.21836 18.4083 6.68562 18.1445C6.15287 17.8806 5.68614 17.4967 5.32142 17.0215C4.95668 16.5463 4.7037 15.9926 4.58221 15.4025C4.46072 14.8124 4.47404 14.202 4.62112 13.6179L4.13626 13.4958L4.62112 13.6179L6.53456 6.01892C6.92109 4.48396 7.89006 3.16743 9.22854 2.35424C10.5668 1.54119 12.167 1.29638 13.6818 1.67211L23.9967 4.23248L23.9968 4.23248C24.7187 4.41162 25.3756 4.79667 25.8894 5.34295C26.4033 5.88927 26.7523 6.57393 26.8945 7.31614C26.8945 7.31617 26.8945 7.3162 26.8945 7.31623L27.4408 10.1723L27.4408 10.1724C27.5856 10.9278 27.4627 11.7105 27.0944 12.3825C26.7261 13.0543 26.1366 13.5718 25.4308 13.8456C25.4307 13.8456 25.4307 13.8457 25.4306 13.8457L24.7912 14.0934L24.7911 14.0935C23.0999 14.7489 21.6621 15.936 20.6883 17.4789L20.6882 17.479L16.8148 23.6199C16.772 23.6871 16.7389 23.7599 16.7165 23.8362L16.7157 23.839C16.3776 25.0167 16.1392 25.8562 16.002 26.3484Z" fill="#5E5E75" stroke="#5E5E75"/>
</g>
</svg>
