<svg width="32" height="32" viewBox="0 0 32 32" fill="none" xmlns="http://www.w3.org/2000/svg">
<g id="Icon - Like">
<path id="Vector" d="M5.56488 21.6242L5.56484 21.624C5.46748 21.1151 5.55019 20.5875 5.79913 20.1335C6.04813 19.6793 6.44804 19.3271 6.92987 19.1402L6.93038 19.14L7.57093 18.8924L5.56488 21.6242ZM5.56488 21.6242L6.11254 24.4804L6.11255 24.4804C6.21649 25.0223 6.4717 25.5236 6.84884 25.9245C7.22604 26.3255 7.70948 26.6094 8.24236 26.7418L8.24243 26.7418L18.5574 29.3022C19.8122 29.6137 21.1375 29.4108 22.2445 28.7385C23.3512 28.0663 24.1494 26.9801 24.4676 25.7174L24.4676 25.7173L26.3811 18.1183L26.3811 18.1182C26.4885 17.6915 26.4981 17.2456 26.4093 16.8146C26.3205 16.3835 26.1355 15.9782 25.868 15.6298C25.6005 15.2814 25.2575 14.9989 24.8649 14.8044C24.4722 14.6099 24.0405 14.5086 23.6028 14.5086C23.6028 14.5086 23.6028 14.5086 23.6027 14.5086L19.7495 14.5086C19.7493 14.5086 19.7491 14.5086 19.7489 14.5086C19.6688 14.5085 19.5897 14.4891 19.5178 14.4518C19.4458 14.4144 19.3829 14.3599 19.3347 14.2923C19.2866 14.2247 19.2546 14.146 19.242 14.0626C19.2293 13.9792 19.2364 13.8941 19.2626 13.8142C20.1532 11.1007 20.618 9.04765 20.618 7.75059C20.618 6.5241 20.3937 5.50466 19.9726 4.77292C19.5452 4.03019 18.8902 3.55515 18.0802 3.55515C17.9479 3.55515 17.854 3.60685 17.8172 3.62944C17.7733 3.65631 17.7426 3.68437 17.7261 3.70055C17.6925 3.73339 17.6699 3.76456 17.6587 3.78058C17.6341 3.8158 17.6148 3.85145 17.6007 3.87943C17.5709 3.93861 17.5382 4.01605 17.5018 4.1147C17.4284 4.31387 17.3281 4.63269 17.1973 5.13563L17.1964 5.13936C17.129 5.40692 17.0584 5.67362 16.9845 5.9394L16.9845 5.93963C16.8471 6.43456 16.6096 7.27496 16.2691 8.45849L16.2686 8.46017C16.2191 8.6344 16.1452 8.80077 16.0502 8.95036L16.0495 8.95148L12.1726 15.0936L12.1726 15.0937M5.56488 21.6242L12.1726 15.0937M17.6813 5.2614C17.6129 5.53294 17.5412 5.8036 17.4663 6.07333C17.3283 6.57035 17.0903 7.4124 16.7496 8.59674C16.6874 8.81581 16.5941 9.02667 16.4724 9.21836L17.6813 5.2614ZM17.6813 5.2614C17.9382 4.27285 18.064 4.05515 18.0802 4.05515C19.2539 4.05515 20.118 5.40243 20.118 7.75059C20.118 8.96095 19.6772 10.9476 18.7874 13.6586L17.6813 5.2614ZM12.1726 15.0937C11.079 16.8267 9.46588 18.1576 7.57135 18.8922L12.1726 15.0937ZM15.998 5.65165L15.9981 5.65096C16.0523 5.45547 16.1034 5.25963 16.2047 4.86313C16.4541 3.90379 16.6773 3.31601 16.9585 2.96286C17.2004 2.65911 17.5089 2.5 18.0815 2.5C19.162 2.5 20.0315 3.00585 20.6494 3.90471C21.2773 4.81822 21.6478 6.14814 21.6478 7.75059C21.6478 8.92043 21.3284 10.5877 20.6614 12.8112L20.4683 13.4549H21.1403H23.6041H23.6043C24.1967 13.4547 24.7816 13.5917 25.3144 13.8555C25.8471 14.1194 26.3139 14.5033 26.6786 14.9785C27.0433 15.4537 27.2963 16.0074 27.4178 16.5975C27.5393 17.1876 27.526 17.798 27.3789 18.3821L27.8637 18.5042L27.3789 18.3821L25.4654 25.9811C25.0789 27.516 24.1099 28.8326 22.7715 29.6458C21.4332 30.4588 19.833 30.7036 18.3182 30.3279L8.00329 27.7675L8.00325 27.7675C7.28133 27.5884 6.62439 27.2033 6.11058 26.657C5.59675 26.1107 5.24767 25.4261 5.10553 24.6839C5.10552 24.6838 5.10552 24.6838 5.10551 24.6838L4.55922 21.8277L4.55918 21.8276C4.41439 21.0722 4.5373 20.2895 4.90564 19.6175C5.27389 18.9457 5.86336 18.4282 6.56923 18.1544C6.56928 18.1544 6.56933 18.1543 6.56938 18.1543L7.20885 17.9066L7.2089 17.9065C8.90012 17.2511 10.3379 16.064 11.3117 14.5211L11.3118 14.521L15.1852 8.38005C15.228 8.31291 15.2611 8.24009 15.2835 8.16381L15.2843 8.16103C15.6224 6.98329 15.8608 6.14379 15.998 5.65165Z" fill="#5E5E75" stroke="#5E5E75"/>
</g>
</svg>
