<svg width="128" height="32" viewBox="0 0 128 32" fill="none" xmlns="http://www.w3.org/2000/svg">
<g id="Icon - Logo Navgurukul">
<g id="navgurukul">
<path d="M15.5977 11.7625H3V10.3562H15.5977V11.7625ZM13.0781 16.907C13.0781 15.032 12.1914 14.0945 10.418 14.0945C9.10547 14.0945 8.00781 14.782 7.125 16.157C6.34375 17.3757 5.95312 18.6726 5.95312 20.0476V23.4578L4.03125 22.45V13.6375H6.04688V15.032L7.08984 14.2468C8.01172 13.5515 8.98438 13.2039 10.0078 13.2039C11.3984 13.2039 12.5508 13.7429 13.4648 14.821C14.3242 15.8367 14.7539 17.0515 14.7539 18.4656C14.7539 20.239 14.0039 21.9421 12.5039 23.575L10.2422 22.157C10.9453 21.4617 11.543 20.821 12.0352 20.2351C12.7305 19.407 13.0781 18.2976 13.0781 16.907Z" fill="white"/>
<path d="M27.3511 11.7625H19.5464V13.6375C19.5777 13.6375 19.6089 13.6531 19.6402 13.6843C19.6714 13.7156 19.6987 13.7312 19.7222 13.7312C19.6597 13.7312 19.6245 13.7273 19.6167 13.7195C19.6167 13.6804 20.1987 13.5554 21.3628 13.3445C21.7925 13.2664 22.2183 13.2273 22.6402 13.2273C24.398 13.2273 25.5269 13.7195 26.0269 14.7039C26.3628 15.3601 26.5308 16.6843 26.5308 18.6765V23.1882C26.3667 23.1257 25.7456 22.8718 24.6675 22.4265C24.6675 22.1765 24.6167 22.0164 24.5152 21.946C24.1011 22.1882 23.7612 22.3718 23.4956 22.4968C22.6519 22.8953 21.6714 23.0945 20.5542 23.0945C19.0152 23.0945 17.8277 22.6101 16.9917 21.6414C16.5855 21.1726 16.3823 20.6492 16.3823 20.071C16.3823 19.4226 16.7027 18.7781 17.3433 18.1375C18.5855 16.8953 20.1284 16.2742 21.9722 16.2742C23.0894 16.2742 23.9878 16.532 24.6675 17.0476V15.9695C24.3237 15.532 23.9878 15.239 23.6597 15.0906C23.3394 14.9421 22.898 14.8757 22.3355 14.8914C21.0777 14.9148 19.9253 15.1453 18.8784 15.5828C18.4097 15.7781 17.9527 15.9539 17.5073 16.1101V15.2429C17.6089 15.157 17.7573 15.0281 17.9527 14.8562C17.9839 14.8171 18.0034 14.7937 18.0112 14.7859V11.7625H15.6089V10.3562H27.3511V11.7625ZM24.6675 19.1804C24.6675 18.8367 24.2573 18.5281 23.437 18.2546C22.7573 18.0281 22.1909 17.9148 21.7378 17.9148C20.0894 17.9148 18.7691 18.5085 17.7769 19.696C17.3784 20.1726 17.1792 20.5632 17.1792 20.8679C17.3433 21.4382 17.9878 21.7234 19.1128 21.7234C20.5659 21.7234 21.8941 21.3601 23.0972 20.6335C24.1441 20.0007 24.6675 19.5164 24.6675 19.1804Z" fill="white"/>
<path d="M42.3389 10.3562L42.3155 11.7625H41.1202V14.0007C40.9795 14.282 40.6514 14.8757 40.1358 15.782L35.9756 23.0945C35.2803 23.0945 34.3702 22.5437 33.2452 21.4421C32.0108 20.239 31.3936 18.9031 31.3936 17.4343C31.3936 16.6843 31.6358 15.9851 32.1202 15.3367C32.3389 15.0398 32.4483 14.8171 32.4483 14.6687C32.4483 14.3953 32.2178 14.2585 31.7569 14.2585C31.4131 14.2585 31.0811 14.3992 30.7608 14.6804C30.6436 14.782 30.3897 15.0593 29.9991 15.5125L28.4873 14.1414C29.003 13.7039 29.5069 13.4343 29.9991 13.3328C30.2412 13.2781 30.5537 13.2507 30.9366 13.2507C33.0537 13.2273 34.1123 14.3562 34.1123 16.6375C34.1123 16.9421 34.0772 17.3992 34.0069 18.0085C33.9444 18.6179 33.9131 19.075 33.9131 19.3796C33.9131 20.614 34.1319 21.2859 34.5694 21.3953C34.8116 21.3953 35.0967 21.0984 35.4248 20.5046L38.9991 14.0476V11.7625H27.6084V10.3562H42.3389Z" fill="white"/>
<path d="M55.3931 24.9695C55.3931 26.4226 54.69 27.1492 53.2837 27.1492C52.6587 27.1492 51.7525 26.8523 50.565 26.2585C49.2525 25.6023 48.1509 25.2742 47.2603 25.2742C45.3462 25.2742 43.5416 26.0281 41.8462 27.5359C41.0337 28.2625 40.397 29.1179 39.9361 30.1023C39.9048 29.9773 39.8892 29.7781 39.8892 29.5046C39.8892 28.5671 40.1705 27.6335 40.733 26.7039C41.2486 25.8445 41.9166 25.1257 42.7369 24.5476C43.6587 23.8992 44.7095 23.575 45.8892 23.575C46.7017 23.575 47.4087 23.7117 48.0103 23.9851C48.3306 24.1335 48.9478 24.5164 49.8619 25.1335C50.6431 25.6648 51.2408 25.9304 51.6548 25.9304C52.6861 25.9304 53.5064 25.5046 54.1158 24.6531C54.3814 24.2859 54.5142 23.9265 54.5142 23.575C54.5142 22.9578 54.3267 22.4421 53.9517 22.0281C53.5767 21.6062 53.0845 21.3953 52.4752 21.3953C51.9127 21.3953 50.9869 21.6804 49.6978 22.2507C48.4087 22.8132 47.483 23.0945 46.9205 23.0945C46.5064 23.0945 46.0064 22.8875 45.4205 22.4734C44.2017 21.6062 43.5923 20.7976 43.5923 20.0476C43.5923 19.6335 43.8228 19.2546 44.2837 18.9109C44.6978 18.5906 45.1236 18.4109 45.5611 18.3718L45.5845 18.2429L45.0103 17.4343C44.69 16.9812 44.5298 16.4929 44.5298 15.9695C44.5298 14.1726 45.9986 13.2742 48.9361 13.2742C49.022 13.2585 49.0806 13.1882 49.1119 13.0632V11.7625H43.0416V10.3562H55.0884V11.7625H50.9283V13.7312C50.9283 14.0984 51.0337 14.325 51.2447 14.4109C51.3775 14.4109 51.5455 14.2898 51.7486 14.0476L52.1939 13.5085C52.3111 13.3914 52.522 13.3132 52.8267 13.2742C53.3189 13.2742 53.7877 13.5554 54.233 14.1179C54.4361 14.3757 54.5689 14.6335 54.6314 14.8914L53.4009 16.2976C53.3853 15.9382 53.3111 15.6101 53.1783 15.3132C52.9986 14.9148 52.7642 14.7156 52.4752 14.7156C52.3658 14.7156 52.2369 14.7664 52.0884 14.8679C51.94 14.9695 51.8658 15.071 51.8658 15.1726C51.8658 15.2898 51.9166 15.4304 52.0181 15.5945C52.1353 15.7898 52.2017 15.9109 52.2173 15.9578C52.272 16.1375 52.2994 16.364 52.2994 16.6375C52.2994 17.6921 51.8697 18.407 51.0103 18.782C50.44 19.032 49.5416 19.157 48.315 19.157C46.7525 19.157 45.6861 19.5046 45.1158 20.2C44.8892 20.4734 44.7798 20.696 44.7877 20.8679C44.7955 21.1023 44.9127 21.3093 45.1392 21.489C45.3658 21.6609 45.6002 21.7468 45.8423 21.7468C46.2877 21.7468 47.1431 21.4382 48.4087 20.821C49.9009 20.0945 51.1041 19.7234 52.0181 19.7078C52.8541 19.6921 53.5572 20.0632 54.1275 20.821C54.5884 21.4226 54.9205 22.1882 55.1236 23.1179C55.3033 23.9382 55.3931 24.5554 55.3931 24.9695ZM50.8345 15.5593C50.8345 14.614 50.3306 14.1414 49.3228 14.1414C48.5103 14.1414 47.7408 14.4265 47.0142 14.9968C46.233 15.6062 45.8423 16.3054 45.8423 17.0945C45.8423 17.5242 46.0064 17.8914 46.3345 18.196C46.6705 18.5007 47.0533 18.6531 47.483 18.6531C47.9283 18.6609 48.4322 18.5007 48.9947 18.1726C49.4947 17.8835 49.9087 17.5476 50.2369 17.1648C50.6353 16.696 50.8345 16.1609 50.8345 15.5593Z" fill="white"/>
<path d="M68.5059 11.7625H58.6973V19.2742C58.6973 19.7742 58.8028 20.2898 59.0137 20.821C59.4434 21.907 60.1544 22.45 61.1466 22.45C62.4825 22.45 63.4981 21.8914 64.1934 20.7742C64.7325 19.9148 65.002 19.1062 65.002 18.3484V13.6843H67.3809V23.6687C67.1934 23.5593 66.8419 23.3914 66.3262 23.1648L64.9786 22.5671V21.6296C64.0567 22.3015 63.2677 22.7273 62.6114 22.907C62.213 23.0164 61.7403 23.071 61.1934 23.071C59.4591 23.071 58.1036 22.3093 57.127 20.7859C56.6817 20.0906 56.4591 19.3328 56.4591 18.5125V11.7625H55.0411V10.3562H68.5059V11.7625Z" fill="white"/>
<path d="M80.6227 11.7625H68.775V10.3562H80.6227V11.7625ZM79.65 15.9695C79.65 16.4304 79.3727 16.95 78.818 17.5281C78.3492 18.0203 77.857 18.3875 77.3414 18.6296L75.5836 16.6375C76.1148 16.5906 76.6188 16.3953 77.0953 16.0515C77.6422 15.6609 77.9156 15.2156 77.9156 14.7156C77.9156 14.45 77.7438 14.2234 77.4 14.0359C77.1031 13.864 76.8102 13.7781 76.5211 13.7781C75.9195 13.7781 75.275 14.0671 74.5875 14.6453C73.1891 15.8171 72.4898 17.114 72.4898 18.5359V23.5046L70.2398 22.3328V13.6609H72.5133V14.5515C72.8492 14.2156 73.5445 13.864 74.5992 13.4968C75.1148 13.3171 75.6461 13.2273 76.193 13.2273C77.3258 13.2273 78.2867 13.6609 79.0758 14.5281C79.4586 14.95 79.65 15.4304 79.65 15.9695Z" fill="white"/>
<path d="M94.0284 11.7625H84.2198V19.2742C84.2198 19.7742 84.3253 20.2898 84.5362 20.821C84.9659 21.907 85.6769 22.45 86.6691 22.45C88.005 22.45 89.0206 21.8914 89.7159 20.7742C90.255 19.9148 90.5245 19.1062 90.5245 18.3484V13.6843H92.9034V23.6687C92.7159 23.5593 92.3644 23.3914 91.8487 23.1648L90.5011 22.5671V21.6296C89.5792 22.3015 88.7902 22.7273 88.1339 22.907C87.7355 23.0164 87.2628 23.071 86.7159 23.071C84.9816 23.071 83.6261 22.3093 82.6495 20.7859C82.2042 20.0906 81.9816 19.3328 81.9816 18.5125V11.7625H80.5636V10.3562H94.0284V11.7625Z" fill="white"/>
<path d="M105.337 11.7625H97.6491V14.7859C98.11 14.5203 98.8639 14.1726 99.9108 13.7429C100.34 13.6257 100.86 13.5671 101.469 13.5671C102.305 13.5671 103.051 13.7976 103.708 14.2585C104.442 14.7664 104.809 15.4226 104.809 16.2273C104.809 17.3132 104.188 18.1023 102.946 18.5945C102.43 18.7976 101.985 18.8992 101.61 18.8992L104.329 22.2039L102.84 23.282L98.6569 18.3132L99.4303 16.7078C99.8444 16.825 100.278 16.8835 100.731 16.8835C101.395 16.8835 101.938 16.7273 102.36 16.4148C102.837 16.071 103.075 15.5789 103.075 14.9382C103.075 14.3132 102.63 14.0007 101.739 14.0007C101.114 14.0007 100.45 14.3015 99.7467 14.9031C99.2467 15.3328 98.7897 15.8523 98.3756 16.4617C97.8756 17.196 97.6256 17.825 97.6256 18.3484V23.2585L95.61 22.3562V11.7625H94.1217V10.3562H95.5397C95.5397 8.11401 95.1334 6.25073 94.3209 4.76636C94.1647 4.47729 93.8639 4.0437 93.4186 3.46558C92.9967 2.91089 92.7038 2.46948 92.5397 2.14136H94.9186C95.3795 2.57104 95.8561 3.27808 96.3483 4.26245C97.1842 5.93433 97.6022 7.96558 97.6022 10.3562H105.337V11.7625Z" fill="white"/>
<path d="M118.801 11.7625H108.992V19.2742C108.992 19.7742 109.098 20.2898 109.309 20.821C109.738 21.907 110.449 22.45 111.442 22.45C112.777 22.45 113.793 21.8914 114.488 20.7742C115.027 19.9148 115.297 19.1062 115.297 18.3484V13.6843H117.676V23.6687C117.488 23.5593 117.137 23.3914 116.621 23.1648L115.274 22.5671V21.6296C114.352 22.3015 113.563 22.7273 112.906 22.907C112.508 23.0164 112.035 23.071 111.488 23.071C109.754 23.071 108.399 22.3093 107.422 20.7859C106.977 20.0906 106.754 19.3328 106.754 18.5125V11.7625H105.336V10.3562H118.801V11.7625Z" fill="white"/>
<path d="M124.367 11.7625H123.125V10.3562H124.367V11.7625ZM120.359 11.7625H119.023V10.3562H120.359V11.7625ZM122.738 8.93823V23.364C122.66 23.3406 122.558 23.2976 122.433 23.2351L121.824 22.9187C121.129 22.5593 120.761 22.3796 120.722 22.3796V8.96167C120.722 8.14136 120.562 7.27026 120.242 6.34839C119.797 5.05933 119.105 3.88745 118.168 2.83276L117.429 2.00073H119.925C121.222 3.29761 122.074 4.88745 122.48 6.77026C122.652 7.56714 122.738 8.28979 122.738 8.93823Z" fill="white"/>
</g>
</g>
</svg>
